<?xml version="1.0" encoding="UTF-8" standalone="no"?>
<!DOCTYPE svg PUBLIC "-//W3C//DTD SVG 1.1//EN"
 "http://www.w3.org/Graphics/SVG/1.1/DTD/svg11.dtd">
<!-- Generated by graphviz version 5.0.0 (0)
 -->
<!-- Title: dependency&#45;cruiser output Pages: 1 -->
<svg width="260pt" height="196pt"
 viewBox="0.00 0.00 260.00 196.00" xmlns="http://www.w3.org/2000/svg" xmlns:xlink="http://www.w3.org/1999/xlink">
<g id="graph0" class="graph" transform="scale(1 1) rotate(0) translate(4 192)">
<title>dependency&#45;cruiser output</title>
<polygon fill="white" stroke="transparent" points="-4,4 -4,-192 256,-192 256,4 -4,4"/>
<g id="clust1" class="cluster">
<title>cluster_fs</title>
<path fill="#ffffff" stroke="black" stroke-width="2" d="M155.5,-128C155.5,-128 204.5,-128 204.5,-128 210.5,-128 216.5,-134 216.5,-140 216.5,-140 216.5,-168 216.5,-168 216.5,-174 210.5,-180 204.5,-180 204.5,-180 155.5,-180 155.5,-180 149.5,-180 143.5,-174 143.5,-168 143.5,-168 143.5,-140 143.5,-140 143.5,-134 149.5,-128 155.5,-128"/>
<text text-anchor="middle" x="180" y="-168.8" font-family="Helvetica,sans-Serif" font-weight="bold" font-size="9.00">fs</text>
</g>
<g id="clust2" class="cluster">
<title>cluster_node_modules</title>
<path fill="#ffffff" stroke="black" stroke-width="2" d="M128,-38C128,-38 232,-38 232,-38 238,-38 244,-44 244,-50 244,-50 244,-108 244,-108 244,-114 238,-120 232,-120 232,-120 128,-120 128,-120 122,-120 116,-114 116,-108 116,-108 116,-50 116,-50 116,-44 122,-38 128,-38"/>
<text text-anchor="middle" x="180" y="-108.8" font-family="Helvetica,sans-Serif" font-weight="bold" font-size="9.00">node_modules</text>
</g>
<g id="clust3" class="cluster">
<title>cluster_source</title>
<path fill="#ffffff" stroke="black" stroke-width="2" d="M35,-113C35,-113 81,-113 81,-113 87,-113 93,-119 93,-125 93,-125 93,-153 93,-153 93,-159 87,-165 81,-165 81,-165 35,-165 35,-165 29,-165 23,-159 23,-153 23,-153 23,-125 23,-125 23,-119 29,-113 35,-113"/>
<text text-anchor="middle" x="58" y="-153.8" font-family="Helvetica,sans-Serif" font-weight="bold" font-size="9.00">source</text>
</g>
<g id="clust4" class="cluster">
<title>cluster_tests</title>
<path fill="#ffffff" stroke="black" stroke-width="2" d="M20,-8C20,-8 96,-8 96,-8 102,-8 108,-14 108,-20 108,-20 108,-78 108,-78 108,-84 102,-90 96,-90 96,-90 20,-90 20,-90 14,-90 8,-84 8,-78 8,-78 8,-20 8,-20 8,-14 14,-8 20,-8"/>
<text text-anchor="middle" x="58" y="-78.8" font-family="Helvetica,sans-Serif" font-weight="bold" font-size="9.00">tests</text>
</g>
<!-- fs/promises -->
<g id="node1" class="node">
<title>fs/promises</title>
<g id="a_node1"><a xlink:title="promises">
<path fill="#ffffcc" stroke="grey" d="M202.5,-154C202.5,-154 157.5,-154 157.5,-154 154.5,-154 151.5,-151 151.5,-148 151.5,-148 151.5,-142 151.5,-142 151.5,-139 154.5,-136 157.5,-136 157.5,-136 202.5,-136 202.5,-136 205.5,-136 208.5,-139 208.5,-142 208.5,-142 208.5,-148 208.5,-148 208.5,-151 205.5,-154 202.5,-154"/>
<text text-anchor="start" x="159.5" y="-142.8" font-family="Helvetica,sans-Serif" font-size="9.00" fill="grey">promises</text>
</a>
</g>
</g>
<!-- node_modules/chai -->
<g id="node2" class="node">
<title>node_modules/chai</title>
<g id="a_node2"><a xlink:href="https://github.com/twyr/the-server/blob/main/node_modules/chai" xlink:title="chai">
<polygon fill="#c40b0a" fill-opacity="0.101961" stroke="black" points="207,-64 155,-64 153,-62 153,-46 205,-46 207,-48 207,-64"/>
<polyline fill="none" stroke="black" points="205,-62 153,-62 "/>
<polyline fill="none" stroke="black" points="205,-62 205,-46 "/>
<polyline fill="none" stroke="black" points="205,-62 207,-64 "/>
<text text-anchor="start" x="170.5" y="-52.8" font-family="Helvetica,sans-Serif" font-size="9.00" fill="#c40b0a">chai</text>
</a>
</g>
</g>
<!-- node_modules/please&#45;upgrade&#45;node -->
<g id="node3" class="node">
<title>node_modules/please&#45;upgrade&#45;node</title>
<g id="a_node3"><a xlink:href="https://github.com/twyr/the-server/blob/main/node_modules/please-upgrade-node" xlink:title="please&#45;upgrade&#45;node">
<polygon fill="#c40b0a" fill-opacity="0.101961" stroke="black" points="236,-94 126,-94 124,-92 124,-76 234,-76 236,-78 236,-94"/>
<polyline fill="none" stroke="black" points="234,-92 124,-92 "/>
<polyline fill="none" stroke="black" points="234,-92 234,-76 "/>
<polyline fill="none" stroke="black" points="234,-92 236,-94 "/>
<text text-anchor="start" x="132" y="-82.8" font-family="Helvetica,sans-Serif" font-size="9.00" fill="#c40b0a">please&#45;upgrade&#45;node</text>
</a>
</g>
</g>
<!-- source/index.js -->
<g id="node4" class="node">
<title>source/index.js</title>
<g id="a_node4"><a xlink:href="https://github.com/twyr/the-server/blob/main/source/index.js" xlink:title="index.js">
<path fill="#ffffcc" stroke="black" d="M79,-139C79,-139 37,-139 37,-139 34,-139 31,-136 31,-133 31,-133 31,-127 31,-127 31,-124 34,-121 37,-121 37,-121 79,-121 79,-121 82,-121 85,-124 85,-127 85,-127 85,-133 85,-133 85,-136 82,-139 79,-139"/>
<text text-anchor="start" x="40.5" y="-127.8" font-family="Helvetica,sans-Serif" font-size="9.00">index.js</text>
</a>
</g>
</g>
<!-- source/index.js&#45;&gt;fs/promises -->
<g id="edge1" class="edge">
<title>source/index.js&#45;&gt;fs/promises</title>
<path fill="none" stroke="#000000" stroke-dasharray="5,2" stroke-opacity="0.200000" d="M85.04,-133.25C102.63,-135.45 126.02,-138.38 145.07,-140.76"/>
<polygon fill="#000000" fill-opacity="0.200000" stroke="#000000" stroke-opacity="0.200000" points="145.13,-142.88 151.34,-141.54 145.65,-138.71 145.13,-142.88"/>
</g>
<!-- source/index.js&#45;&gt;node_modules/please&#45;upgrade&#45;node -->
<g id="edge2" class="edge">
<title>source/index.js&#45;&gt;node_modules/please&#45;upgrade&#45;node</title>
<path fill="none" stroke="#000000" stroke-opacity="0.200000" d="M83.28,-120.89C102.23,-113.79 128.65,-103.88 148.94,-96.27"/>
<polygon fill="#000000" fill-opacity="0.200000" stroke="#000000" stroke-opacity="0.200000" points="149.87,-98.17 154.75,-94.09 148.4,-94.23 149.87,-98.17"/>
</g>
<!-- tests/index.spec.js -->
<g id="node5" class="node">
<title>tests/index.spec.js</title>
<g id="a_node5"><a xlink:href="https://github.com/twyr/the-server/blob/main/tests/index.spec.js" xlink:title="index.spec.js">
<path fill="#ffffcc" stroke="black" d="M89.5,-64C89.5,-64 26.5,-64 26.5,-64 23.5,-64 20.5,-61 20.5,-58 20.5,-58 20.5,-52 20.5,-52 20.5,-49 23.5,-46 26.5,-46 26.5,-46 89.5,-46 89.5,-46 92.5,-46 95.5,-49 95.5,-52 95.5,-52 95.5,-58 95.5,-58 95.5,-61 92.5,-64 89.5,-64"/>
<text text-anchor="start" x="28.5" y="-52.8" font-family="Helvetica,sans-Serif" font-size="9.00">index.spec.js</text>
</a>
</g>
</g>
<!-- tests/index.spec.js&#45;&gt;node_modules/chai -->
<g id="edge3" class="edge">
<title>tests/index.spec.js&#45;&gt;node_modules/chai</title>
<path fill="none" stroke="#000000" stroke-opacity="0.200000" d="M95.66,-55C111.96,-55 131,-55 146.75,-55"/>
<polygon fill="#000000" fill-opacity="0.200000" stroke="#000000" stroke-opacity="0.200000" points="146.84,-57.1 152.84,-55 146.84,-52.9 146.84,-57.1"/>
</g>
<!-- tests/setup&#45;mocks.js -->
<g id="node6" class="node">
<title>tests/setup&#45;mocks.js</title>
<g id="a_node6"><a xlink:href="https://github.com/twyr/the-server/blob/main/tests/setup-mocks.js" xlink:title="no&#45;orphans">
<path fill="#ccffcc" stroke="orange" d="M94,-34C94,-34 22,-34 22,-34 19,-34 16,-31 16,-28 16,-28 16,-22 16,-22 16,-19 19,-16 22,-16 22,-16 94,-16 94,-16 97,-16 100,-19 100,-22 100,-22 100,-28 100,-28 100,-31 97,-34 94,-34"/>
<text text-anchor="start" x="24" y="-22.8" font-family="Helvetica,sans-Serif" font-size="9.00" fill="orange">setup&#45;mocks.js</text>
</a>
</g>
</g>
</g>
</svg>
